<svg width="30" height="30" viewBox="0 0 30 30" fill="none" xmlns="http://www.w3.org/2000/svg">
<g clip-path="url(#clip0_22_73)">
<path d="M1.25 0C0.557292 0 0 0.626953 0 1.40625C0 2.18555 0.557292 2.8125 1.25 2.8125H3.61979C3.81771 2.8125 3.98958 2.9707 4.03125 3.19336L6.71875 19.0723C7.05729 21.0645 8.60417 22.5 10.401 22.5H25.4167C26.1094 22.5 26.6667 21.873 26.6667 21.0938C26.6667 20.3145 26.1094 19.6875 25.4167 19.6875H10.401C9.80208 19.6875 9.28646 19.207 9.17188 18.5449L8.89062 16.875H23.9167C25.6146 16.875 27.099 15.5977 27.5365 13.752L29.6719 4.82812C30.0312 3.33984 29.0312 1.875 27.6615 1.875H18.75V7.85742L19.9479 6.50977C20.4375 5.95898 21.2292 5.95898 21.7135 6.50977C22.1979 7.06055 22.2031 7.95117 21.7135 8.49609L18.3802 12.2461C17.8906 12.7969 17.099 12.7969 16.6146 12.2461L13.2812 8.49609C12.7917 7.94531 12.7917 7.05469 13.2812 6.50977C13.7708 5.96484 14.5625 5.95898 15.0469 6.50977L16.2448 7.85742V1.875H6.25521C5.78125 0.75 4.77083 0 3.61979 0H1.25ZM9.16667 30C9.82971 30 10.4656 29.7037 10.9344 29.1762C11.4033 28.6488 11.6667 27.9334 11.6667 27.1875C11.6667 26.4416 11.4033 25.7262 10.9344 25.1988C10.4656 24.6713 9.82971 24.375 9.16667 24.375C8.50362 24.375 7.86774 24.6713 7.3989 25.1988C6.93006 25.7262 6.66667 26.4416 6.66667 27.1875C6.66667 27.9334 6.93006 28.6488 7.3989 29.1762C7.86774 29.7037 8.50362 30 9.16667 30ZM26.6667 27.1875C26.6667 26.4416 26.4033 25.7262 25.9344 25.1988C25.4656 24.6713 24.8297 24.375 24.1667 24.375C23.5036 24.375 22.8677 24.6713 22.3989 25.1988C21.9301 25.7262 21.6667 26.4416 21.6667 27.1875C21.6667 27.9334 21.9301 28.6488 22.3989 29.1762C22.8677 29.7037 23.5036 30 24.1667 30C24.8297 30 25.4656 29.7037 25.9344 29.1762C26.4033 28.6488 26.6667 27.9334 26.6667 27.1875Z" fill="black"/>
</g>
<defs>
<clipPath id="clip0_22_73">
<rect width="30" height="30" fill="white"/>
</clipPath>
</defs>
</svg>
