<svg width="38" height="37" viewBox="0 0 38 37" fill="none" xmlns="http://www.w3.org/2000/svg">
<g clip-path="url(#clip0_22_60)">
<path d="M30.875 15.0312C30.875 18.3482 29.7691 21.4123 27.9062 23.8982L37.3023 33.0543C38.2301 33.9576 38.2301 35.4246 37.3023 36.3279C36.3746 37.2313 34.868 37.2313 33.9402 36.3279L24.5441 27.1719C21.991 28.993 18.8441 30.0625 15.4375 30.0625C6.90976 30.0625 0 23.3346 0 15.0312C0 6.72793 6.90976 0 15.4375 0C23.9652 0 30.875 6.72793 30.875 15.0312ZM15.4375 25.4375C16.841 25.4375 18.2308 25.1683 19.5274 24.6454C20.8241 24.1224 22.0023 23.3559 22.9947 22.3896C23.9871 21.4233 24.7744 20.2761 25.3115 19.0135C25.8486 17.751 26.125 16.3978 26.125 15.0312C26.125 13.6647 25.8486 12.3115 25.3115 11.049C24.7744 9.78641 23.9871 8.63923 22.9947 7.67292C22.0023 6.70661 20.8241 5.94009 19.5274 5.41713C18.2308 4.89417 16.841 4.625 15.4375 4.625C14.034 4.625 12.6442 4.89417 11.3476 5.41713C10.0509 5.94009 8.87272 6.70661 7.8803 7.67292C6.88787 8.63923 6.10063 9.78641 5.56354 11.049C5.02644 12.3115 4.75 13.6647 4.75 15.0312C4.75 16.3978 5.02644 17.751 5.56354 19.0135C6.10063 20.2761 6.88787 21.4233 7.8803 22.3896C8.87272 23.3559 10.0509 24.1224 11.3476 24.6454C12.6442 25.1683 14.034 25.4375 15.4375 25.4375Z" fill="black"/>
</g>
<defs>
<clipPath id="clip0_22_60">
<rect width="38" height="37" fill="white"/>
</clipPath>
</defs>
</svg>
